<svg xmlns="http://www.w3.org/2000/svg" width="1200" height="947.21" viewBox="0 0 1200 947.21"><defs><style>.a{fill:#c1c5c8;}.b{fill:#898a8d;}.c{fill:#97a3ae;}.d{fill:#ec7700;}.e{fill:#96460a;}.f{fill:#c1531b;}</style></defs><polygon class="a" points="547.51 632.17 547.51 232.47 464.93 315.04 464.93 714.74 547.51 632.17"/><path class="b" d="M647.9,632.16V591.74L847.75,270.65h-192V232.46H896V268.4L694.49,594H896v38.17Z"/><path class="b" d="M1198.67,547.38c-8.51,56-60.66,91.19-133.71,91.19-60.13,0-99.48-15.17-137.13-52.83l29.23-29.23c33.15,33.16,64.06,43.85,109,43.85,46.24,0,78.63-18.48,88.17-50.41a57.13,57.13,0,0,0,2.23-13.07,73.32,73.32,0,0,0-4.67-31.36c-2.91-8.12-12.06-18.94-19.12-23.75-15.57-11.4-37.84-21-60.72-28.78l-44.67-15.3c-30.1-10.46-52.6-24.8-67.21-42.69-17.21-21.06-23.05-51.75-18-82.69,0-.21.36-2.12.36-2.12,12.51-53,56.06-84.13,124.5-84.13,51.14,0,79.5,15.38,113.78,46.29l-27.54,27.54c-24.72-22.48-45.77-36.74-87.93-36.74-49.82,0-77.35,26.41-82.8,61.74-2.09,19.57,3.19,34.16,13.32,46.57,10.31,12.67,28.37,22.86,48.26,29.8l42,14.26c30.49,10.21,64,26.28,82.67,43,0,0,38.91,30.17,30,88.82"/><polygon class="c" points="82.58 632.17 82.58 232.47 0 315.04 0 714.74 82.58 632.17"/><polygon class="d" points="116.23 830.97 198.81 748.4 198.81 515.93 116.23 598.51 116.23 830.97"/><polygon class="c" points="198.81 116.23 116.23 198.81 116.23 431.27 198.81 348.7 198.81 116.23"/><polygon class="e" points="116.23 431.27 116.23 598.51 198.81 515.93 198.81 348.7 116.23 431.27"/><polygon class="a" points="232.47 714.74 232.47 947.21 315.04 864.63 315.04 632.17 232.47 714.74"/><polygon class="d" points="232.47 482.28 232.47 547.51 315.04 464.93 315.04 399.7 232.47 482.28"/><polygon class="c" points="315.04 0 232.47 82.58 232.47 315.04 315.04 232.47 315.04 0"/><polygon class="f" points="232.47 714.74 315.04 632.17 315.04 464.93 232.47 547.51 232.47 714.74"/><polygon class="e" points="315.04 399.7 315.04 232.47 232.47 315.04 232.47 482.28 315.04 399.7"/><polygon class="a" points="431.27 515.93 348.7 598.51 348.7 830.98 431.27 748.4 431.27 515.93"/><polygon class="d" points="431.27 348.7 431.27 116.23 348.7 198.81 348.7 431.27 431.27 348.7"/><polygon class="f" points="431.27 348.7 348.7 431.27 348.7 598.51 431.27 515.93 431.27 348.7"/></svg>